<svg xmlns="http://www.w3.org/2000/svg" xmlns:xlink="http://www.w3.org/1999/xlink" width="42" zoomAndPan="magnify" viewBox="0 0 31.5 31.499999" height="42" preserveAspectRatio="xMidYMid meet" version="1.0"><defs><clipPath id="id1"><path d="M 2.648438 7 L 28.898438 7 L 28.898438 30.582031 L 2.648438 30.582031 Z M 2.648438 7 " clip-rule="nonzero"/></clipPath><clipPath id="id2"><path d="M 2.648438 0.582031 L 28 0.582031 L 28 17 L 2.648438 17 Z M 2.648438 0.582031 " clip-rule="nonzero"/></clipPath></defs><g clip-path="url(#id1)"><path fill="#fec544" d="M 28.058594 7.71875 C 15.777344 7.585938 6.390625 11.996094 2.648438 25.269531 L 2.648438 30.582031 L 9.226562 30.582031 L 9.226562 22.390625 L 16.507812 22.390625 L 21.296875 30.582031 L 28.894531 30.582031 L 23.238281 20.90625 C 26.523438 19.007812 28.738281 15.488281 28.738281 11.484375 C 28.738281 10.164062 28.5 8.894531 28.058594 7.71875 Z M 28.058594 7.71875 " fill-opacity="1" fill-rule="evenodd"/></g><g clip-path="url(#id2)"><path fill="#fec544" d="M 2.648438 16.171875 C 8.699219 8.273438 17.488281 6.101562 27.65625 6.792969 C 25.875 3.128906 22.070312 0.582031 17.695312 0.582031 L 2.648438 0.582031 L 2.648438 9.28125 C 8.144531 5.800781 14.699219 4.347656 22.5625 5.382812 C 14.355469 4.96875 7.800781 7.492188 2.648438 12.5 Z M 2.648438 16.171875 " fill-opacity="1" fill-rule="evenodd"/></g></svg>