<svg xmlns="http://www.w3.org/2000/svg" xmlns:xlink="http://www.w3.org/1999/xlink" width="149" zoomAndPan="magnify" viewBox="0 0 111.75 30.000001" height="40" preserveAspectRatio="xMidYMid meet" version="1.0"><defs><g/><clipPath id="id1"><path d="M 90 5 L 109.828125 5 L 109.828125 28 L 90 28 Z M 90 5 " clip-rule="nonzero"/></clipPath></defs><g fill="#ffbd59" fill-opacity="1"><g transform="translate(19.420163, 27.587156)"><g><path d="M 10.304688 -4.039062 L 4.148438 -4.039062 L 4.148438 -8.921875 L 12.664062 -8.921875 C 12.828125 -8.921875 12.960938 -9.058594 12.960938 -9.167969 L 12.960938 -12.609375 C 12.960938 -12.746094 12.828125 -12.855469 12.664062 -12.855469 L 4.148438 -12.855469 L 4.148438 -17.761719 L 10.304688 -17.761719 L 10.304688 -21.695312 L 0.296875 -21.695312 C 0.136719 -21.695312 0 -21.558594 0 -21.449219 L 0 -0.242188 C 0 -0.136719 0.136719 0 0.296875 0 L 10.304688 0 Z M 10.304688 -4.039062 "/></g></g></g><g fill="#ffffff" fill-opacity="1"><g transform="translate(3.825043, 27.587156)"><g><path d="M 14.808594 -0.351562 C 13.449219 -3.363281 11.988281 -6.347656 10.628906 -9.410156 C 12.800781 -10.195312 14.617188 -11.933594 14.617188 -15.242188 C 14.617188 -21.640625 8.515625 -21.695312 7.292969 -21.695312 L 0.269531 -21.695312 C 0.136719 -21.695312 0 -21.558594 0 -21.449219 L 0 -17.761719 L 7.292969 -17.761719 C 7.945312 -17.761719 10.496094 -17.628906 10.496094 -15.242188 C 10.496094 -12.855469 8.191406 -12.746094 7.292969 -12.746094 L 0 -12.746094 L 0 -0.242188 C 0 -0.136719 0.136719 0 0.269531 0 L 3.824219 0 C 3.988281 0 4.121094 -0.136719 4.121094 -0.242188 L 4.121094 -8.757812 L 6.453125 -8.757812 L 10.414062 -0.164062 C 10.441406 -0.0820312 10.601562 0 10.683594 0 L 14.5625 0 C 14.78125 0 14.886719 -0.164062 14.808594 -0.351562 Z M 14.808594 -0.351562 "/></g></g></g><g fill="#ffffff" fill-opacity="1"><g transform="translate(33.05185, 27.587156)"><g><path d="M 4.148438 -12.285156 L 4.148438 -21.449219 C 4.148438 -21.558594 4.039062 -21.695312 3.851562 -21.695312 L 0.296875 -21.695312 C 0.136719 -21.695312 0 -21.558594 0 -21.449219 L 0 -12.285156 Z M 16.21875 -21.695312 L 12.664062 -21.695312 C 12.5 -21.695312 12.367188 -21.558594 12.367188 -21.449219 L 12.367188 -8.109375 L 4.148438 -8.109375 L 4.148438 -8.136719 L 0 -8.136719 L 0 -0.242188 C 0 -0.136719 0.136719 0 0.296875 0 L 3.851562 0 C 4.039062 0 4.148438 -0.136719 4.148438 -0.242188 L 4.148438 -4.066406 L 12.367188 -4.066406 L 12.367188 -0.242188 C 12.367188 -0.136719 12.5 0 12.664062 0 L 16.21875 0 C 16.40625 0 16.515625 -0.136719 16.515625 -0.242188 L 16.515625 -21.449219 C 16.515625 -21.558594 16.40625 -21.695312 16.21875 -21.695312 Z M 16.21875 -21.695312 "/></g></g></g><g fill="#ffffff" fill-opacity="1"><g transform="translate(50.401019, 27.587156)"><g><path d="M 19.417969 -5.234375 L 23.539062 -5.234375 L 23.539062 -21.449219 C 23.539062 -21.558594 23.429688 -21.695312 23.242188 -21.695312 L 19.660156 -21.695312 C 19.550781 -21.695312 19.417969 -21.613281 19.363281 -21.53125 L 11.960938 -5.640625 L 4.175781 -21.53125 C 4.148438 -21.613281 3.988281 -21.695312 3.90625 -21.695312 L 0.269531 -21.695312 C 0.0820312 -21.695312 0 -21.558594 0 -21.449219 L 0 -0.242188 C 0 -0.136719 0.0820312 0 0.269531 0 L 3.851562 0 C 4.011719 0 4.148438 -0.136719 4.148438 -0.242188 L 4.148438 -12.421875 L 10.035156 -1.03125 C 10.0625 -0.949219 10.222656 -0.867188 10.304688 -0.867188 L 13.640625 -0.867188 C 13.722656 -0.867188 13.859375 -0.949219 13.882812 -1.03125 L 19.417969 -12.121094 Z M 19.417969 -5.234375 "/></g></g></g><g fill="#ffbd59" fill-opacity="1"><g transform="translate(74.299462, 28.106034)"><g><path d="M 17.035156 -0.324219 L 8.789062 -21.535156 C 8.707031 -21.753906 8.328125 -21.753906 8.246094 -21.535156 L 0.0273438 -0.324219 C -0.0546875 -0.164062 0.0546875 0 0.296875 0 L 4.015625 0 C 4.121094 0 4.257812 -0.0546875 4.285156 -0.164062 L 8.515625 -12.261719 L 12.800781 -0.164062 C 12.828125 -0.0546875 12.964844 0 13.046875 0 L 16.789062 0 C 16.980469 0 17.113281 -0.164062 17.035156 -0.324219 Z M 17.035156 -0.324219 "/></g></g></g><g clip-path="url(#id1)"><g fill="#ffffff" fill-opacity="1"><g transform="translate(90.892935, 27.587156)"><g><path d="M 17.953125 -21.695312 L 14.453125 -21.695312 C 14.265625 -21.695312 14.128906 -21.558594 14.128906 -21.449219 L 14.128906 -7.320312 L 4.121094 -21.613281 C 4.09375 -21.667969 3.933594 -21.695312 3.878906 -21.695312 L 0.269531 -21.695312 C 0.136719 -21.695312 0 -21.558594 0 -21.449219 L 0 -5.207031 L 4.148438 -5.207031 L 4.148438 -14.371094 L 14.128906 -0.0820312 C 14.15625 -0.0273438 14.320312 0 14.371094 0 L 17.953125 0 C 18.140625 0 18.25 -0.136719 18.25 -0.242188 L 18.25 -21.449219 C 18.25 -21.558594 18.140625 -21.695312 17.953125 -21.695312 Z M 17.953125 -21.695312 "/></g></g></g></g></svg>